<mxfile host="app.diagrams.net" modified="2024-07-02T18:00:51.208Z" agent="Mozilla/5.0 (X11; Linux x86_64) AppleWebKit/537.36 (KHTML, like Gecko) Chrome/126.0.0.0 Safari/537.36 Edg/126.0.0.0" etag="IY6fjd_PXYlY5gOupk8X" version="24.6.4" type="device">
  <diagram name="Page-1" id="SL3-pKhC1T-OUthzZoxt">
    <mxGraphModel dx="1375" dy="1458" grid="1" gridSize="10" guides="1" tooltips="1" connect="1" arrows="1" fold="1" page="1" pageScale="1" pageWidth="850" pageHeight="1100" math="0" shadow="0">
      <root>
        <mxCell id="0" />
        <mxCell id="1" parent="0" />
        <mxCell id="siNIbU0pzGiGCjO3MmFP-1" value="&lt;b&gt;&lt;font style=&quot;font-size: 15px;&quot;&gt;Rapidjson&lt;/font&gt;&lt;/b&gt;" style="swimlane;fontStyle=0;childLayout=stackLayout;horizontal=1;startSize=30;horizontalStack=0;resizeParent=1;resizeParentMax=0;resizeLast=0;collapsible=1;marginBottom=0;whiteSpace=wrap;html=1;fillColor=#dae8fc;strokeColor=#6c8ebf;strokeWidth=2;" parent="1" vertex="1">
          <mxGeometry x="30" y="315" width="220" height="270" as="geometry" />
        </mxCell>
        <mxCell id="siNIbU0pzGiGCjO3MmFP-2" value="+&amp;nbsp;Rapidjson(Res : char *)" style="text;strokeColor=none;fillColor=#f5f5f5;align=left;verticalAlign=middle;spacingLeft=4;spacingRight=4;overflow=hidden;points=[[0,0.5],[1,0.5]];portConstraint=eastwest;rotatable=0;whiteSpace=wrap;html=1;fontColor=#000000;fontSize=14;strokeWidth=2;" parent="siNIbU0pzGiGCjO3MmFP-1" vertex="1">
          <mxGeometry y="30" width="220" height="30" as="geometry" />
        </mxCell>
        <mxCell id="siNIbU0pzGiGCjO3MmFP-26" value="+ GetDate() : std::string" style="text;strokeColor=none;fillColor=#f5f5f5;align=left;verticalAlign=middle;spacingLeft=4;spacingRight=4;overflow=hidden;points=[[0,0.5],[1,0.5]];portConstraint=eastwest;rotatable=0;whiteSpace=wrap;html=1;fontColor=#000000;fontSize=14;strokeWidth=2;" parent="siNIbU0pzGiGCjO3MmFP-1" vertex="1">
          <mxGeometry y="60" width="220" height="30" as="geometry" />
        </mxCell>
        <mxCell id="siNIbU0pzGiGCjO3MmFP-25" value="+&amp;nbsp;GetTime() : std::string" style="text;strokeColor=none;fillColor=#f5f5f5;align=left;verticalAlign=middle;spacingLeft=4;spacingRight=4;overflow=hidden;points=[[0,0.5],[1,0.5]];portConstraint=eastwest;rotatable=0;whiteSpace=wrap;html=1;fontColor=#000000;fontSize=14;strokeWidth=2;" parent="siNIbU0pzGiGCjO3MmFP-1" vertex="1">
          <mxGeometry y="90" width="220" height="30" as="geometry" />
        </mxCell>
        <mxCell id="siNIbU0pzGiGCjO3MmFP-24" value="+&amp;nbsp;GetTemperature() : float" style="text;strokeColor=none;fillColor=#f5f5f5;align=left;verticalAlign=middle;spacingLeft=4;spacingRight=4;overflow=hidden;points=[[0,0.5],[1,0.5]];portConstraint=eastwest;rotatable=0;whiteSpace=wrap;html=1;fontColor=#000000;fontSize=14;strokeWidth=2;" parent="siNIbU0pzGiGCjO3MmFP-1" vertex="1">
          <mxGeometry y="120" width="220" height="30" as="geometry" />
        </mxCell>
        <mxCell id="siNIbU0pzGiGCjO3MmFP-23" value="+&amp;nbsp;GetMinForcastTemp() : float *" style="text;strokeColor=none;fillColor=#f5f5f5;align=left;verticalAlign=middle;spacingLeft=4;spacingRight=4;overflow=hidden;points=[[0,0.5],[1,0.5]];portConstraint=eastwest;rotatable=0;whiteSpace=wrap;html=1;fontColor=#000000;fontSize=14;strokeWidth=2;" parent="siNIbU0pzGiGCjO3MmFP-1" vertex="1">
          <mxGeometry y="150" width="220" height="30" as="geometry" />
        </mxCell>
        <mxCell id="siNIbU0pzGiGCjO3MmFP-22" value="+&amp;nbsp;GetMaxForcastTemp() : float *" style="text;strokeColor=none;fillColor=#f5f5f5;align=left;verticalAlign=middle;spacingLeft=4;spacingRight=4;overflow=hidden;points=[[0,0.5],[1,0.5]];portConstraint=eastwest;rotatable=0;whiteSpace=wrap;html=1;fontColor=#000000;fontSize=14;strokeWidth=2;" parent="siNIbU0pzGiGCjO3MmFP-1" vertex="1">
          <mxGeometry y="180" width="220" height="30" as="geometry" />
        </mxCell>
        <mxCell id="siNIbU0pzGiGCjO3MmFP-3" value="+&amp;nbsp;GetForcastDate() : std::string *" style="text;strokeColor=none;fillColor=#f5f5f5;align=left;verticalAlign=middle;spacingLeft=4;spacingRight=4;overflow=hidden;points=[[0,0.5],[1,0.5]];portConstraint=eastwest;rotatable=0;whiteSpace=wrap;html=1;fontColor=#000000;fontSize=14;strokeWidth=2;" parent="siNIbU0pzGiGCjO3MmFP-1" vertex="1">
          <mxGeometry y="210" width="220" height="30" as="geometry" />
        </mxCell>
        <mxCell id="rOurJ3ajMvRwLRT5k5jZ-22" value="+ ~Rapidjson()" style="text;strokeColor=none;fillColor=#f5f5f5;align=left;verticalAlign=middle;spacingLeft=4;spacingRight=4;overflow=hidden;points=[[0,0.5],[1,0.5]];portConstraint=eastwest;rotatable=0;whiteSpace=wrap;html=1;fontColor=#000000;fontSize=14;strokeWidth=2;" vertex="1" parent="siNIbU0pzGiGCjO3MmFP-1">
          <mxGeometry y="240" width="220" height="30" as="geometry" />
        </mxCell>
        <mxCell id="siNIbU0pzGiGCjO3MmFP-5" value="&lt;font size=&quot;1&quot; style=&quot;&quot;&gt;&lt;b style=&quot;font-size: 16px;&quot;&gt;Curl&lt;/b&gt;&lt;/font&gt;" style="swimlane;fontStyle=0;childLayout=stackLayout;horizontal=1;startSize=30;horizontalStack=0;resizeParent=1;resizeParentMax=0;resizeLast=0;collapsible=1;marginBottom=0;whiteSpace=wrap;html=1;fillColor=#dae8fc;strokeColor=#6c8ebf;strokeWidth=2;" parent="1" vertex="1">
          <mxGeometry x="350" y="315" width="570" height="180" as="geometry" />
        </mxCell>
        <mxCell id="siNIbU0pzGiGCjO3MmFP-17" value="+ Curl(latitude : std::string &amp;amp;, longitude : std::string &amp;amp;, data : DataAbstract *) :&amp;nbsp;Curl_Status" style="text;strokeColor=none;fillColor=#f5f5f5;align=left;verticalAlign=middle;spacingLeft=4;spacingRight=4;overflow=hidden;points=[[0,0.5],[1,0.5]];portConstraint=eastwest;rotatable=0;whiteSpace=wrap;html=1;fontColor=#000000;fontSize=14;strokeWidth=2;" parent="siNIbU0pzGiGCjO3MmFP-5" vertex="1">
          <mxGeometry y="30" width="570" height="30" as="geometry" />
        </mxCell>
        <mxCell id="siNIbU0pzGiGCjO3MmFP-16" value="+ Curl_Init() : Curl_Status" style="text;strokeColor=none;fillColor=#f5f5f5;align=left;verticalAlign=middle;spacingLeft=4;spacingRight=4;overflow=hidden;points=[[0,0.5],[1,0.5]];portConstraint=eastwest;rotatable=0;whiteSpace=wrap;html=1;fontColor=#000000;fontSize=14;strokeWidth=2;" parent="siNIbU0pzGiGCjO3MmFP-5" vertex="1">
          <mxGeometry y="60" width="570" height="30" as="geometry" />
        </mxCell>
        <mxCell id="siNIbU0pzGiGCjO3MmFP-18" value="+ Curl_Setup() : Curl_Status" style="text;strokeColor=none;fillColor=#f5f5f5;align=left;verticalAlign=middle;spacingLeft=4;spacingRight=4;overflow=hidden;points=[[0,0.5],[1,0.5]];portConstraint=eastwest;rotatable=0;whiteSpace=wrap;html=1;fontColor=#000000;fontSize=14;strokeWidth=2;" parent="siNIbU0pzGiGCjO3MmFP-5" vertex="1">
          <mxGeometry y="90" width="570" height="30" as="geometry" />
        </mxCell>
        <mxCell id="siNIbU0pzGiGCjO3MmFP-19" value="+ Curl_Preform() : Curl_Status&amp;nbsp;" style="text;strokeColor=none;fillColor=#f5f5f5;align=left;verticalAlign=middle;spacingLeft=4;spacingRight=4;overflow=hidden;points=[[0,0.5],[1,0.5]];portConstraint=eastwest;rotatable=0;whiteSpace=wrap;html=1;fontColor=#000000;fontSize=14;strokeWidth=2;" parent="siNIbU0pzGiGCjO3MmFP-5" vertex="1">
          <mxGeometry y="120" width="570" height="30" as="geometry" />
        </mxCell>
        <mxCell id="siNIbU0pzGiGCjO3MmFP-20" value="+ ~Curl()" style="text;strokeColor=none;fillColor=#f5f5f5;align=left;verticalAlign=middle;spacingLeft=4;spacingRight=4;overflow=hidden;points=[[0,0.5],[1,0.5]];portConstraint=eastwest;rotatable=0;whiteSpace=wrap;html=1;fontColor=#000000;fontSize=14;strokeWidth=2;" parent="siNIbU0pzGiGCjO3MmFP-5" vertex="1">
          <mxGeometry y="150" width="570" height="30" as="geometry" />
        </mxCell>
        <mxCell id="siNIbU0pzGiGCjO3MmFP-9" value="&lt;font style=&quot;font-size: 16px;&quot;&gt;&lt;b&gt;Data&lt;/b&gt;&lt;/font&gt;" style="swimlane;fontStyle=0;childLayout=stackLayout;horizontal=1;startSize=30;horizontalStack=0;resizeParent=1;resizeParentMax=0;resizeLast=0;collapsible=1;marginBottom=0;whiteSpace=wrap;html=1;fillColor=#dae8fc;strokeColor=#6c8ebf;strokeWidth=2;" parent="1" vertex="1">
          <mxGeometry x="180" y="50" width="530" height="150" as="geometry" />
        </mxCell>
        <mxCell id="siNIbU0pzGiGCjO3MmFP-12" value="+ Data()" style="text;strokeColor=none;fillColor=#f5f5f5;align=left;verticalAlign=middle;spacingLeft=4;spacingRight=4;overflow=hidden;points=[[0,0.5],[1,0.5]];portConstraint=eastwest;rotatable=0;whiteSpace=wrap;html=1;fontColor=#000000;fontSize=14;strokeWidth=2;" parent="siNIbU0pzGiGCjO3MmFP-9" vertex="1">
          <mxGeometry y="30" width="530" height="30" as="geometry" />
        </mxCell>
        <mxCell id="siNIbU0pzGiGCjO3MmFP-13" value="+&amp;nbsp;GetResponse() : char *" style="text;strokeColor=none;fillColor=#f5f5f5;align=left;verticalAlign=middle;spacingLeft=4;spacingRight=4;overflow=hidden;points=[[0,0.5],[1,0.5]];portConstraint=eastwest;rotatable=0;whiteSpace=wrap;html=1;fontColor=#000000;fontSize=14;strokeWidth=2;" parent="siNIbU0pzGiGCjO3MmFP-9" vertex="1">
          <mxGeometry y="60" width="530" height="30" as="geometry" />
        </mxCell>
        <mxCell id="siNIbU0pzGiGCjO3MmFP-14" value="&lt;u style=&quot;font-size: 14px;&quot;&gt;+ write_chunk(data : void *,&amp;nbsp; size :size_t , nmemb : size_t, userdata : size_t) :&amp;nbsp;size_t&lt;/u&gt;" style="text;strokeColor=none;fillColor=#f5f5f5;align=left;verticalAlign=middle;spacingLeft=4;spacingRight=4;overflow=hidden;points=[[0,0.5],[1,0.5]];portConstraint=eastwest;rotatable=0;whiteSpace=wrap;html=1;fontColor=#000000;fontSize=14;strokeWidth=2;" parent="siNIbU0pzGiGCjO3MmFP-9" vertex="1">
          <mxGeometry y="90" width="530" height="30" as="geometry" />
        </mxCell>
        <mxCell id="siNIbU0pzGiGCjO3MmFP-15" value="+ ~Data()" style="text;strokeColor=none;fillColor=#f5f5f5;align=left;verticalAlign=middle;spacingLeft=4;spacingRight=4;overflow=hidden;points=[[0,0.5],[1,0.5]];portConstraint=eastwest;rotatable=0;whiteSpace=wrap;html=1;fontColor=#000000;fontSize=14;strokeWidth=2;" parent="siNIbU0pzGiGCjO3MmFP-9" vertex="1">
          <mxGeometry y="120" width="530" height="30" as="geometry" />
        </mxCell>
        <mxCell id="siNIbU0pzGiGCjO3MmFP-27" value="" style="endArrow=none;html=1;rounded=0;entryX=1;entryY=0.5;entryDx=0;entryDy=0;exitX=0.5;exitY=0;exitDx=0;exitDy=0;" parent="1" source="siNIbU0pzGiGCjO3MmFP-28" target="siNIbU0pzGiGCjO3MmFP-14" edge="1">
          <mxGeometry width="50" height="50" relative="1" as="geometry">
            <mxPoint x="760" y="280" as="sourcePoint" />
            <mxPoint x="770" y="180" as="targetPoint" />
            <Array as="points">
              <mxPoint x="760" y="155" />
            </Array>
          </mxGeometry>
        </mxCell>
        <mxCell id="siNIbU0pzGiGCjO3MmFP-28" value="" style="rhombus;whiteSpace=wrap;html=1;" parent="1" vertex="1">
          <mxGeometry x="750" y="295" width="20" height="20" as="geometry" />
        </mxCell>
        <mxCell id="siNIbU0pzGiGCjO3MmFP-30" value="" style="endArrow=classic;html=1;rounded=0;entryX=0;entryY=0.5;entryDx=0;entryDy=0;dashed=1;" parent="1" source="siNIbU0pzGiGCjO3MmFP-1" target="siNIbU0pzGiGCjO3MmFP-14" edge="1">
          <mxGeometry width="50" height="50" relative="1" as="geometry">
            <mxPoint x="80" y="250" as="sourcePoint" />
            <mxPoint x="130" y="200" as="targetPoint" />
            <Array as="points">
              <mxPoint x="140" y="155" />
            </Array>
          </mxGeometry>
        </mxCell>
        <mxCell id="rOurJ3ajMvRwLRT5k5jZ-1" value="&lt;b&gt;&lt;font style=&quot;font-size: 14px;&quot;&gt;DataAbstract&lt;/font&gt;&lt;/b&gt;" style="swimlane;fontStyle=0;childLayout=stackLayout;horizontal=1;startSize=30;horizontalStack=0;resizeParent=1;resizeParentMax=0;resizeLast=0;collapsible=1;marginBottom=0;whiteSpace=wrap;html=1;fillColor=#dae8fc;strokeColor=#6c8ebf;strokeWidth=2;" vertex="1" parent="1">
          <mxGeometry x="350" y="-250" width="190" height="150" as="geometry" />
        </mxCell>
        <mxCell id="rOurJ3ajMvRwLRT5k5jZ-19" value="&lt;div style=&quot;font-size: 14px;&quot;&gt;# Response : char *&lt;/div&gt;" style="text;strokeColor=none;fillColor=#f5f5f5;align=left;verticalAlign=middle;spacingLeft=4;spacingRight=4;overflow=hidden;points=[[0,0.5],[1,0.5]];portConstraint=eastwest;rotatable=0;whiteSpace=wrap;html=1;fontColor=#000000;fontSize=14;strokeWidth=2;" vertex="1" parent="rOurJ3ajMvRwLRT5k5jZ-1">
          <mxGeometry y="30" width="190" height="30" as="geometry" />
        </mxCell>
        <mxCell id="rOurJ3ajMvRwLRT5k5jZ-20" value="# size : size_t" style="text;strokeColor=none;fillColor=#f5f5f5;align=left;verticalAlign=middle;spacingLeft=4;spacingRight=4;overflow=hidden;points=[[0,0.5],[1,0.5]];portConstraint=eastwest;rotatable=0;whiteSpace=wrap;html=1;fontColor=#000000;fontSize=14;strokeWidth=2;" vertex="1" parent="rOurJ3ajMvRwLRT5k5jZ-1">
          <mxGeometry y="60" width="190" height="30" as="geometry" />
        </mxCell>
        <mxCell id="rOurJ3ajMvRwLRT5k5jZ-35" value="" style="endArrow=none;html=1;rounded=0;fontSize=12;startSize=8;endSize=8;curved=1;exitX=-0.016;exitY=0.967;exitDx=0;exitDy=0;exitPerimeter=0;strokeWidth=2;entryX=1.005;entryY=-0.067;entryDx=0;entryDy=0;entryPerimeter=0;" edge="1" parent="rOurJ3ajMvRwLRT5k5jZ-1" source="rOurJ3ajMvRwLRT5k5jZ-20" target="rOurJ3ajMvRwLRT5k5jZ-17">
          <mxGeometry width="50" height="50" relative="1" as="geometry">
            <mxPoint x="50" y="89" as="sourcePoint" />
            <mxPoint x="190" y="91" as="targetPoint" />
            <Array as="points">
              <mxPoint x="100" y="90" />
            </Array>
          </mxGeometry>
        </mxCell>
        <mxCell id="rOurJ3ajMvRwLRT5k5jZ-17" value="+&amp;nbsp;GetResponse() : char *" style="text;strokeColor=none;fillColor=#f5f5f5;align=left;verticalAlign=middle;spacingLeft=4;spacingRight=4;overflow=hidden;points=[[0,0.5],[1,0.5]];portConstraint=eastwest;rotatable=0;whiteSpace=wrap;html=1;fontColor=#000000;fontSize=14;strokeWidth=2;" vertex="1" parent="rOurJ3ajMvRwLRT5k5jZ-1">
          <mxGeometry y="90" width="190" height="30" as="geometry" />
        </mxCell>
        <mxCell id="rOurJ3ajMvRwLRT5k5jZ-18" value="+ ~DataAbstact()" style="text;strokeColor=none;fillColor=#f5f5f5;align=left;verticalAlign=middle;spacingLeft=4;spacingRight=4;overflow=hidden;points=[[0,0.5],[1,0.5]];portConstraint=eastwest;rotatable=0;whiteSpace=wrap;html=1;fontColor=#000000;fontSize=14;strokeWidth=2;" vertex="1" parent="rOurJ3ajMvRwLRT5k5jZ-1">
          <mxGeometry y="120" width="190" height="30" as="geometry" />
        </mxCell>
        <mxCell id="rOurJ3ajMvRwLRT5k5jZ-5" value="&lt;b&gt;&lt;font style=&quot;font-size: 14px;&quot;&gt;RapidjsonAbstract&lt;/font&gt;&lt;/b&gt;" style="swimlane;fontStyle=0;childLayout=stackLayout;horizontal=1;startSize=30;horizontalStack=0;resizeParent=1;resizeParentMax=0;resizeLast=0;collapsible=1;marginBottom=0;whiteSpace=wrap;html=1;fillColor=#dae8fc;strokeColor=#6c8ebf;strokeWidth=2;" vertex="1" parent="1">
          <mxGeometry y="-250" width="180" height="180" as="geometry" />
        </mxCell>
        <mxCell id="rOurJ3ajMvRwLRT5k5jZ-16" value="# d : Document" style="text;strokeColor=none;fillColor=#f5f5f5;align=left;verticalAlign=middle;spacingLeft=4;spacingRight=4;overflow=hidden;points=[[0,0.5],[1,0.5]];portConstraint=eastwest;rotatable=0;whiteSpace=wrap;html=1;fontColor=#000000;fontSize=14;strokeWidth=2;" vertex="1" parent="rOurJ3ajMvRwLRT5k5jZ-5">
          <mxGeometry y="30" width="180" height="30" as="geometry" />
        </mxCell>
        <mxCell id="rOurJ3ajMvRwLRT5k5jZ-34" value="" style="endArrow=none;html=1;rounded=0;fontSize=12;startSize=8;endSize=8;curved=0;entryX=1.011;entryY=1;entryDx=0;entryDy=0;entryPerimeter=0;exitX=0;exitY=0;exitDx=0;exitDy=0;exitPerimeter=0;strokeWidth=3;" edge="1" parent="rOurJ3ajMvRwLRT5k5jZ-5" source="rOurJ3ajMvRwLRT5k5jZ-13" target="rOurJ3ajMvRwLRT5k5jZ-16">
          <mxGeometry width="50" height="50" relative="1" as="geometry">
            <mxPoint x="55" y="59" as="sourcePoint" />
            <mxPoint x="125" y="59" as="targetPoint" />
          </mxGeometry>
        </mxCell>
        <mxCell id="rOurJ3ajMvRwLRT5k5jZ-13" value="+ GetDate() : std::string" style="text;strokeColor=none;fillColor=#f5f5f5;align=left;verticalAlign=middle;spacingLeft=4;spacingRight=4;overflow=hidden;points=[[0,0.5],[1,0.5]];portConstraint=eastwest;rotatable=0;whiteSpace=wrap;html=1;fontColor=#000000;fontSize=14;strokeWidth=2;" vertex="1" parent="rOurJ3ajMvRwLRT5k5jZ-5">
          <mxGeometry y="60" width="180" height="30" as="geometry" />
        </mxCell>
        <mxCell id="rOurJ3ajMvRwLRT5k5jZ-14" value="+&amp;nbsp;GetTime() : std::string" style="text;strokeColor=none;fillColor=#f5f5f5;align=left;verticalAlign=middle;spacingLeft=4;spacingRight=4;overflow=hidden;points=[[0,0.5],[1,0.5]];portConstraint=eastwest;rotatable=0;whiteSpace=wrap;html=1;fontColor=#000000;fontSize=14;strokeWidth=2;" vertex="1" parent="rOurJ3ajMvRwLRT5k5jZ-5">
          <mxGeometry y="90" width="180" height="30" as="geometry" />
        </mxCell>
        <mxCell id="rOurJ3ajMvRwLRT5k5jZ-15" value="+&amp;nbsp;GetTemperature() : float" style="text;strokeColor=none;fillColor=#f5f5f5;align=left;verticalAlign=middle;spacingLeft=4;spacingRight=4;overflow=hidden;points=[[0,0.5],[1,0.5]];portConstraint=eastwest;rotatable=0;whiteSpace=wrap;html=1;fontColor=#000000;fontSize=14;strokeWidth=2;" vertex="1" parent="rOurJ3ajMvRwLRT5k5jZ-5">
          <mxGeometry y="120" width="180" height="30" as="geometry" />
        </mxCell>
        <mxCell id="rOurJ3ajMvRwLRT5k5jZ-21" value="+ ~RapidjsonAbstract()" style="text;strokeColor=none;fillColor=#f5f5f5;align=left;verticalAlign=middle;spacingLeft=4;spacingRight=4;overflow=hidden;points=[[0,0.5],[1,0.5]];portConstraint=eastwest;rotatable=0;whiteSpace=wrap;html=1;fontColor=#000000;fontSize=14;strokeWidth=2;" vertex="1" parent="rOurJ3ajMvRwLRT5k5jZ-5">
          <mxGeometry y="150" width="180" height="30" as="geometry" />
        </mxCell>
        <mxCell id="rOurJ3ajMvRwLRT5k5jZ-9" value="&lt;b&gt;&lt;font style=&quot;font-size: 14px;&quot;&gt;CurlAbstract&lt;/font&gt;&lt;/b&gt;" style="swimlane;fontStyle=0;childLayout=stackLayout;horizontal=1;startSize=30;horizontalStack=0;resizeParent=1;resizeParentMax=0;resizeLast=0;collapsible=1;marginBottom=0;whiteSpace=wrap;html=1;fillColor=#dae8fc;strokeColor=#6c8ebf;strokeWidth=2;" vertex="1" parent="1">
          <mxGeometry x="720" y="-250" width="210" height="240" as="geometry" />
        </mxCell>
        <mxCell id="rOurJ3ajMvRwLRT5k5jZ-27" value="# curl : CURL *" style="text;strokeColor=none;fillColor=#f5f5f5;align=left;verticalAlign=middle;spacingLeft=4;spacingRight=4;overflow=hidden;points=[[0,0.5],[1,0.5]];portConstraint=eastwest;rotatable=0;whiteSpace=wrap;html=1;fontColor=#000000;fontSize=14;strokeWidth=2;" vertex="1" parent="rOurJ3ajMvRwLRT5k5jZ-9">
          <mxGeometry y="30" width="210" height="30" as="geometry" />
        </mxCell>
        <mxCell id="rOurJ3ajMvRwLRT5k5jZ-28" value="# result : CURLcode" style="text;strokeColor=none;fillColor=#f5f5f5;align=left;verticalAlign=middle;spacingLeft=4;spacingRight=4;overflow=hidden;points=[[0,0.5],[1,0.5]];portConstraint=eastwest;rotatable=0;whiteSpace=wrap;html=1;fontColor=#000000;fontSize=14;strokeWidth=2;" vertex="1" parent="rOurJ3ajMvRwLRT5k5jZ-9">
          <mxGeometry y="60" width="210" height="30" as="geometry" />
        </mxCell>
        <mxCell id="rOurJ3ajMvRwLRT5k5jZ-29" value="# weatherAPI : char *" style="text;strokeColor=none;fillColor=#f5f5f5;align=left;verticalAlign=middle;spacingLeft=4;spacingRight=4;overflow=hidden;points=[[0,0.5],[1,0.5]];portConstraint=eastwest;rotatable=0;whiteSpace=wrap;html=1;fontColor=#000000;fontSize=14;strokeWidth=2;" vertex="1" parent="rOurJ3ajMvRwLRT5k5jZ-9">
          <mxGeometry y="90" width="210" height="30" as="geometry" />
        </mxCell>
        <mxCell id="rOurJ3ajMvRwLRT5k5jZ-36" value="" style="endArrow=none;html=1;rounded=0;fontSize=12;startSize=8;endSize=8;curved=1;exitX=0.005;exitY=-0.022;exitDx=0;exitDy=0;exitPerimeter=0;strokeWidth=2;" edge="1" parent="rOurJ3ajMvRwLRT5k5jZ-9" source="rOurJ3ajMvRwLRT5k5jZ-23">
          <mxGeometry width="50" height="50" relative="1" as="geometry">
            <mxPoint x="60" y="120" as="sourcePoint" />
            <mxPoint x="210" y="120" as="targetPoint" />
          </mxGeometry>
        </mxCell>
        <mxCell id="rOurJ3ajMvRwLRT5k5jZ-23" value="+ Curl_Init() : Curl_Status" style="text;strokeColor=none;fillColor=#f5f5f5;align=left;verticalAlign=middle;spacingLeft=4;spacingRight=4;overflow=hidden;points=[[0,0.5],[1,0.5]];portConstraint=eastwest;rotatable=0;whiteSpace=wrap;html=1;fontColor=#000000;fontSize=14;strokeWidth=2;" vertex="1" parent="rOurJ3ajMvRwLRT5k5jZ-9">
          <mxGeometry y="120" width="210" height="30" as="geometry" />
        </mxCell>
        <mxCell id="rOurJ3ajMvRwLRT5k5jZ-24" value="+ Curl_Setup() : Curl_Status" style="text;strokeColor=none;fillColor=#f5f5f5;align=left;verticalAlign=middle;spacingLeft=4;spacingRight=4;overflow=hidden;points=[[0,0.5],[1,0.5]];portConstraint=eastwest;rotatable=0;whiteSpace=wrap;html=1;fontColor=#000000;fontSize=14;strokeWidth=2;" vertex="1" parent="rOurJ3ajMvRwLRT5k5jZ-9">
          <mxGeometry y="150" width="210" height="30" as="geometry" />
        </mxCell>
        <mxCell id="rOurJ3ajMvRwLRT5k5jZ-25" value="+ Curl_Preform() : Curl_Status&amp;nbsp;" style="text;strokeColor=none;fillColor=#f5f5f5;align=left;verticalAlign=middle;spacingLeft=4;spacingRight=4;overflow=hidden;points=[[0,0.5],[1,0.5]];portConstraint=eastwest;rotatable=0;whiteSpace=wrap;html=1;fontColor=#000000;fontSize=14;strokeWidth=2;" vertex="1" parent="rOurJ3ajMvRwLRT5k5jZ-9">
          <mxGeometry y="180" width="210" height="30" as="geometry" />
        </mxCell>
        <mxCell id="rOurJ3ajMvRwLRT5k5jZ-26" value="+&amp;nbsp;CurlAbstract()" style="text;strokeColor=none;fillColor=#f5f5f5;align=left;verticalAlign=middle;spacingLeft=4;spacingRight=4;overflow=hidden;points=[[0,0.5],[1,0.5]];portConstraint=eastwest;rotatable=0;whiteSpace=wrap;html=1;fontColor=#000000;fontSize=14;strokeWidth=2;" vertex="1" parent="rOurJ3ajMvRwLRT5k5jZ-9">
          <mxGeometry y="210" width="210" height="30" as="geometry" />
        </mxCell>
        <mxCell id="rOurJ3ajMvRwLRT5k5jZ-31" value="" style="endArrow=classic;html=1;rounded=0;fontSize=12;startSize=8;endSize=8;curved=1;exitX=0.861;exitY=-0.011;exitDx=0;exitDy=0;exitPerimeter=0;" edge="1" parent="1" source="siNIbU0pzGiGCjO3MmFP-5">
          <mxGeometry width="50" height="50" relative="1" as="geometry">
            <mxPoint x="840" y="320" as="sourcePoint" />
            <mxPoint x="840" y="-10" as="targetPoint" />
          </mxGeometry>
        </mxCell>
        <mxCell id="rOurJ3ajMvRwLRT5k5jZ-32" value="" style="endArrow=classic;html=1;rounded=0;fontSize=12;startSize=8;endSize=8;curved=1;" edge="1" parent="1">
          <mxGeometry width="50" height="50" relative="1" as="geometry">
            <mxPoint x="440" y="50" as="sourcePoint" />
            <mxPoint x="440" y="-100" as="targetPoint" />
          </mxGeometry>
        </mxCell>
        <mxCell id="rOurJ3ajMvRwLRT5k5jZ-33" value="" style="endArrow=classic;html=1;rounded=0;fontSize=12;startSize=8;endSize=8;curved=1;exitX=0.232;exitY=0.009;exitDx=0;exitDy=0;exitPerimeter=0;" edge="1" parent="1" source="siNIbU0pzGiGCjO3MmFP-1">
          <mxGeometry width="50" height="50" relative="1" as="geometry">
            <mxPoint x="80" y="310" as="sourcePoint" />
            <mxPoint x="80" y="-70" as="targetPoint" />
          </mxGeometry>
        </mxCell>
      </root>
    </mxGraphModel>
  </diagram>
</mxfile>
